<?xml version="1.0" standalone="no"?><!DOCTYPE svg PUBLIC "-//W3C//DTD SVG 1.1//EN" "http://www.w3.org/Graphics/SVG/1.1/DTD/svg11.dtd"><svg t="1764169743141" class="icon" viewBox="0 0 1024 1024" version="1.1" xmlns="http://www.w3.org/2000/svg" p-id="1608" xmlns:xlink="http://www.w3.org/1999/xlink" width="200" height="200"><path d="M1024 201.142857v621.714286q0 24-22.285714 33.714286-7.428571 2.857143-14.285715 2.857142-15.428571 0-25.714285-10.857142l-230.285715-230.285715v94.857143q0 68-48.285714 116.285714T566.857143 877.714286H164.571429q-68 0-116.285715-48.285715T0 713.142857V310.857143q0-68 48.285714-116.285714T164.571429 146.285714h402.285714q68 0 116.285714 48.285715T731.428571 310.857143v94.285714l230.285715-229.714286q10.285714-10.857143 25.714285-10.857142 6.857143 0 14.285715 2.857142 22.285714 9.714286 22.285714 33.714286z" p-id="1609"></path></svg>