<?xml version="1.0" standalone="no"?><!DOCTYPE svg PUBLIC "-//W3C//DTD SVG 1.1//EN" "http://www.w3.org/Graphics/SVG/1.1/DTD/svg11.dtd"><svg t="1693645987094" class="icon" viewBox="0 0 1024 1024" version="1.1" xmlns="http://www.w3.org/2000/svg" p-id="4024" xmlns:xlink="http://www.w3.org/1999/xlink" width="200" height="200"><path d="M510.211772 690.097234c-102.008278 0-184.996364-82.603323-184.996364-184.134741 0-101.537558 82.989109-184.144974 184.996364-184.144974 102.004185 0 184.990225 82.607416 184.990225 184.144974C695.201997 607.493911 612.214934 690.097234 510.211772 690.097234zM510.211772 383.444089c-67.883063 0-123.109876 54.961776-123.109876 122.518405 0 67.555605 55.226812 122.516358 123.109876 122.516358 67.87897 0 123.103736-54.960753 123.103736-122.516358C633.315508 438.405865 578.090742 383.444089 510.211772 383.444089z" fill="#272636" p-id="4025"></path><path d="M389.723607 953.337637c-0.405229 0-0.812505-0.008186-1.219781-0.023536-2.582825-0.099261-5.158487-0.529049-7.653307-1.277086l-0.76748-0.229221-0.00614-0.007163c-68.488861-20.627806-132.202974-57.594743-184.304609-106.940614l-0.490164-0.457418-0.101307-0.106424c-0.664126-0.63752-1.328251-1.337461-1.973958-2.079358l-0.083911-0.096191c-0.694825-0.819668-1.278109-1.569752-1.795902-2.304486l-0.186242-0.268106c-0.49835-0.724501-0.971118-1.480724-1.407046-2.252297l-0.193405-0.331551c-0.450255-0.839111-0.806365-1.558495-1.13587-2.291183l-0.231267-0.529049c-0.290619-0.681522-0.571005-1.422396-0.852414-2.249227-0.074701-0.221034-0.13303-0.393973-0.187265-0.572028-0.249687-0.808412-0.458441-1.577938-0.632403-2.335185l-0.098237-0.440022c-0.185218-0.87288-0.324388-1.699712-0.432859-2.562359-0.01228-0.074701-0.033769-0.231267-0.050142-0.38681-0.099261-0.864694-0.162706-1.741667-0.188288-2.63706l-0.001023-0.12075c-0.021489-1.037632 0.002047-1.972934 0.064468-2.869351l0.007163-0.12996c0.067538-0.918929 0.180102-1.848091 0.345877-2.840698 0.170892-1.006933 0.37453-1.936095 0.621147-2.863211l0.054235-0.199545c0.24764-0.883113 0.531096-1.7519 0.839111-2.580778l0.068562-0.168846c0.010233-0.039909 0.044002-0.132006 0.081864-0.222057 0.277316-0.715291 0.630357-1.517563 1.02126-2.319835 0.063445-0.132006 0.137123-0.278339 0.215918-0.433882 0.400113-0.785899 0.811482-1.517563 1.258667-2.240017 0.068562-0.11768 0.177032-0.286526 0.285502-0.451278l0.077771-0.12382c0.075725-0.122797 0.150426-0.24457 0.233314-0.36532 11.57257-17.315364 17.693987-37.525662 17.693987-58.430784 0-58.265008-47.628764-105.665575-106.173135-105.665575-2.214435 0-4.178159 0.048095-6.004761 0.148379l-0.086981 0.005117c-0.544399 0.027629-1.086751 0.040932-1.627057 0.040932-0.459464 0-0.916882-0.010233-1.372254-0.026606l-0.11154-0.005117c-0.473791-0.025583-0.947582-0.058328-1.418302-0.106424-0.062422-0.004093-0.12382-0.010233-0.182149-0.016373-0.398066-0.033769-0.840134-0.094144-1.283226-0.153496l0.289596-2.922563-0.397043 2.907213-0.25992-0.038886c-0.343831-0.055259-0.716314-0.11461-1.086751-0.187265-0.143263-0.027629-0.298805-0.059352-0.449231-0.092098-0.317225-0.061398-0.626263-0.130983-0.937348-0.206708l-0.673335-0.165776c-0.209778-0.059352-0.895393-0.251733-0.895393-0.251733-0.188288-0.054235-0.373507-0.109494-0.559748-0.173962-0.146333-0.042979-0.288572-0.091074-0.430812-0.13917l-0.1361-0.046049c-0.313132-0.105401-0.608867-0.204661-0.907673-0.319272-0.100284-0.034792-0.261966-0.101307-0.421602-0.165776-0.321318-0.125867-0.608867-0.242524-0.895393-0.361227l-0.73678-0.325411c-0.24457-0.11154-0.487094-0.222057-0.727571-0.342808l-0.576121-0.287549c-0.233314-0.12075-0.469698-0.24457-0.703011-0.372483-0.155543-0.084934-0.331551-0.184195-0.500397-0.284479-0.209778-0.118704-0.472767-0.272199-0.73678-0.429789l-0.476861-0.296759c-0.288572-0.183172-0.537236-0.343831-0.780783-0.51063 0 0-0.417509-0.283456-0.568958-0.391926l-0.560772-0.404206c-0.216941-0.163729-0.672312-0.522909-0.672312-0.522909-0.158612-0.12075-0.347924-0.26913-0.531096-0.424672-0.201591-0.164752-0.433882-0.36225-0.666172-0.563842l-0.409322-0.35918c-0.222057-0.199545-0.448208-0.414439-0.675382-0.630357 0 0-0.336668-0.324388-0.411369-0.403183-0.204661-0.198521-0.453325-0.456395-0.701988-0.716314-0.109494-0.116657-0.214894-0.230244-0.314155-0.341784-0.208754-0.225127-0.456395-0.50449-0.698918-0.788969l2.134617-2.02103-2.216481 1.923816c-0.072655-0.083911-0.145309-0.168846-0.215918-0.258896-0.168846-0.197498-0.391926-0.480954-0.613984-0.763386l-0.261966-0.339738c-0.199545-0.264013-0.38681-0.529049-0.578168-0.798179-0.106424-0.14224-0.214894-0.304945-0.331551-0.477884-0.147356-0.211824-0.320295-0.480954-0.490164-0.747014l-0.071631-0.110517c-0.102331-0.160659-0.203638-0.320295-0.299829-0.488117-0.097214-0.156566-0.234337-0.387833-0.367367-0.6191l-0.355087-0.638543-0.313132-0.602727c-0.144286-0.277316-0.283456-0.561795-0.418532-0.840134-0.072655-0.149403-0.14224-0.308015-0.209778-0.462534-0.144286-0.300852-0.274246-0.60989-0.400113-0.915859l-0.042979-0.105401c-0.036839-0.077771-0.095167-0.223081-0.151449-0.378623-0.149403-0.370437-0.287549-0.741897-0.421602-1.11745-0.044002-0.12689-0.072655-0.209778-0.097214-0.283456-0.138146-0.402159-0.270153-0.818645-0.390903-1.234107l-0.060375-0.203638c-0.115634-0.406253-0.216941-0.802272-0.315178-1.200338-0.030699-0.10847-0.060375-0.223081-0.082888-0.334621 0 0-0.116657-0.499373-0.137123-0.602727-7.984858-34.147728-12.032034-69.311599-12.032034-104.523565 0-35.207873 4.050246-70.384024 12.038174-104.552218 0.027629-0.12382 0.189312-0.817622 0.189312-0.817622 0.104377-0.425695 0.218988-0.847298 0.334621-1.264806 0.023536-0.083911 0.048095-0.167822 0.075725-0.252757 0.116657-0.406253 0.246617-0.812505 0.385786-1.215688 0.022513-0.072655 0.048095-0.145309 0.073678-0.216941 0.150426-0.433882 0.304945-0.852414 0.470721-1.260713l0.107447-0.271176c0.145309-0.349971 0.297782-0.694825 0.447185-1.034563 0.068562-0.152473 0.13303-0.290619 0.201591-0.428765 0.143263-0.313132 0.296759-0.61603 0.456395-0.920976l0.281409-0.543376 0.35918-0.64366c0 0 0.302899-0.518816 0.38681-0.653893 0.104377-0.180102 0.214894-0.358157 0.328481-0.535189l0.49528-0.757247 0.350994-0.506537 0.548492-0.753153c0.089028-0.122797 0.204661-0.272199 0.321318-0.419556 0.210801-0.26913 0.428765-0.544399 0.653893-0.807389 0.065492-0.081864 0.165776-0.201591 0.274246-0.324388 0.218988-0.261966 0.444115-0.5137 0.674359-0.766456l0.460488-0.490164c0.191358-0.197498 0.38374-0.394996 0.579191-0.586354 0.075725-0.079818 0.211824-0.211824 0.356111-0.349971l0.216941-0.204661c0.162706-0.153496 0.325411-0.306992 0.49221-0.454348 0.047072-0.045025 0.394996-0.353041 0.394996-0.353041l0.63138-0.535189 0.158612-0.127913c0.164752-0.130983 0.330528-0.26299 0.503467-0.39295 0.124843-0.100284 0.316202-0.25071 0.511653-0.397043 0.173962-0.128937 0.793062-0.572028 0.793062-0.572028 0.145309-0.102331 0.288572-0.202615 0.430812-0.295735 0.213871-0.147356 0.49528-0.329505 0.775666-0.506537 0.187265-0.12075 0.310062-0.199545 0.426719-0.267083 0.293689-0.178055 0.586354-0.347924 0.883113-0.51677l0.349971-0.198521c0.335644-0.181125 0.665149-0.355087 1.00591-0.527003l0.2415-0.11768c0.378623-0.186242 0.724501-0.344854 1.069355-0.50142l0.301875-0.132006c0.367367-0.160659 0.732687-0.306992 1.095961-0.448208l0.340761-0.127913c0.320295-0.12075 0.672312-0.245593 1.025353-0.363274l0.435928-0.141216c0.294712-0.095167 0.63445-0.196475 0.974188-0.288572 0.090051-0.029676 0.275269-0.082888 0.466628-0.134053 0.336668-0.084934 0.61603-0.154519 0.89437-0.217964l0.686638-0.157589 0.695848-0.1361c0 0 0.673335-0.118704 0.86367-0.148379l0.521886-0.073678c0.36225-0.053212 0.713244-0.096191 1.071402-0.130983l0.352017-0.034792c0.438998-0.041956 0.827855-0.065492 1.215688-0.086981 0.167822-0.00921 0.279363-0.01535 0.378623-0.017396 0.400113-0.020466 0.801249-0.026606 1.214664-0.026606l0.302899 0c0.407276 0.005117 0.788969 0.016373 1.170662 0.035816 0.099261 0.001023 0.196475 0.00307 0.294712 0.00921 1.820462 0.099261 3.784186 0.147356 5.994528 0.147356 58.543348 0 106.173135-47.385217 106.173135-105.628736 0-20.925588-6.121418-41.147142-17.702174-58.478879-0.085958-0.128937-0.165776-0.25685-0.24457-0.384763l-0.310062-0.490164c-0.468674-0.751107-0.902556-1.521656-1.304715-2.313695l-0.156566-0.312108c-0.441045-0.899486-0.787946-1.691525-1.090844-2.485611-0.030699-0.075725-0.060375-0.151449-0.088004-0.228197-0.332575-0.880043-0.613984-1.739621-0.88209-2.689249l-0.059352-0.234337c-0.213871-0.784876-0.406253-1.64343-0.558725-2.50403l-0.022513-0.066515-0.036839-0.270153c-0.159636-0.963954-0.275269-1.913583-0.340761-2.822278l-0.007163-0.127913c-0.061398-0.896416-0.084934-1.828648-0.068562-2.771113l0.007163-0.161682c0.023536-0.948605 0.089028-1.850138 0.191358-2.739391 0.00921-0.103354 0.031722-0.261966 0.055259-0.419556 0.097214-0.783853 0.2415-1.636267 0.417509-2.456958l0.106424-0.465604c0.166799-0.74599 0.376577-1.52268 0.636496-2.358721 0.036839-0.122797 0.171915-0.530073 0.171915-0.530073 0.285502-0.845251 0.566912-1.587148 0.864694-2.286066l0.206708-0.471744c0.390903-0.86367 0.756223-1.598404 1.1328-2.281973 0.044002-0.085958 0.12689-0.231267 0.205685-0.367367 0.462534-0.811482 0.921999-1.547239 1.410116-2.25332 0.051165-0.077771 0.104377-0.154519 0.159636-0.232291 0.584308-0.830925 1.182942-1.600451 1.799996-2.319835l0.082888-0.098237c0.662079-0.76441 1.364067-1.502213 2.085498-2.192945l0.581238-0.551562c52.260248-49.481971 116.238374-86.525656 184.990225-107.101273l0.411369-0.122797 0.013303 0c2.37714-0.678452 4.817726-1.067308 7.261381-1.158383 0.407276-0.017396 0.823761-0.025583 1.240247-0.025583 3.019777 0 6.019087 0.444115 8.915044 1.319042 0.061398 0.01535 0.134053 0.037862 0.211824 0.063445 0.295735 0.089028 0.585331 0.188288 0.876973 0.288572l0.188288 0.063445c0.116657 0.037862 0.231267 0.074701 0.343831 0.11768 0.144286 0.052189 0.899486 0.346901 0.899486 0.346901 0.165776 0.065492 0.333598 0.132006 0.500397 0.202615 0.091074 0.035816 0.229221 0.095167 0.379647 0.165776 0.25992 0.107447 0.51984 0.223081 0.777713 0.342808l0.265036 0.122797c4.279467 2.041496 8.084119 5.083785 11.002588 8.798387 1.381463 1.757017 2.562359 3.650133 3.515057 5.629207l0.391926 0.565888 0.002047 0.255827c17.557888 36.557614 55.109132 60.140729 95.851045 60.140729 40.902572 0 78.608336-23.803125 96.060823-60.642149 1.336438-2.852978 3.089361-5.469572 5.207605-7.766894 2.336208-2.545986 5.083785-4.676509 8.159844-6.328126l0.632403-0.353041 0.065492 0c0.097214-0.048095 0.662079-0.329505 0.662079-0.329505 0.317225-0.145309 0.573051-0.258896 0.833995-0.370437l0.639566-0.284479 0.517793-0.195451c0.190335-0.078795 0.483001-0.192382 0.768503-0.301875l0.106424-0.040932c0 0 0.199545-0.061398 0.24457-0.075725 3.297093-1.151219 6.727215-1.734504 10.197246-1.734504 0.414439 0 0.831948 0.008186 1.249457 0.025583 2.492774 0.093121 4.998851 0.502443 7.441483 1.216711l0.206708 0.032746 0.186242 0.080841c69.108984 20.721951 133.305075 58.030671 185.735192 107.939361l1.759063 0 0.008186 1.723248c0.423649 0.436952 0.836041 0.890276 1.237177 1.354857l0.300852 0.349971 0.010233 0.025583c0.532119 0.639566 1.047866 1.321088 1.540076 2.028193l0.099261 0.140193c0.514723 0.75213 1.006933 1.544169 1.462305 2.350534l0.169869 0.296759c0.405229 0.74906 0.792039 1.535983 1.14815 2.340301l0.156566 0.349971c0.327458 0.769526 0.620124 1.554402 0.911766 2.434445l0.11461 0.322341c0.283456 0.916882 0.509606 1.766226 0.698918 2.620687 0.034792 0.13917 0.059352 0.2415 0.079818 0.341784 0.167822 0.773619 0.315178 1.665942 0.441045 2.679016 0.007163 0.027629 0.021489 0.12996 0.029676 0.233314 0.434905 3.739161 0.165776 7.540743-0.805342 11.234879l0 0.172939-0.150426 0.379647c-0.23536 0.842181-0.514723 1.683339-0.850367 2.562359l-0.031722 0.106424-0.040932 0.104377c-0.308015 0.787946-0.663102 1.589195-1.087774 2.450818-0.086981 0.185218-0.145309 0.305969-0.211824 0.428765-0.335644 0.662079-0.76441 1.419326-1.240247 2.180666-0.082888 0.144286-0.169869 0.287549-0.257873 0.423649l-0.102331 0.165776c-11.253298 17.198707-17.179264 37.119409-17.179264 57.673537 0 58.243519 47.63081 105.628736 106.176205 105.628736 1.704828 0 3.174296-0.025583 4.493338-0.077771l0.115634-0.002047c0.367367-0.017396 0.825808-0.027629 1.281179-0.027629 1.086751 0 2.179642 0.058328 3.25002 0.172939l0.112564 0.014326c0.422625 0.046049 0.846274 0.104377 1.264806 0.169869 0.106424 0.013303 0.214894 0.028653 0.320295 0.048095 0.357134 0.058328 0.713244 0.122797 1.071402 0.194428l0.443092 0.089028c0.176009 0.035816 0.379647 0.084934 0.580215 0.134053l0.49528 0.118704c0.152473 0.035816 0.302899 0.071631 0.452301 0.112564l0.808412 0.23536c0.220011 0.064468 0.436952 0.127913 0.653893 0.197498l0.413416 0.14224c0.38988 0.132006 0.714268 0.242524 1.027399 0.360204l0.204661 0.083911c0.355087 0.1361 0.719384 0.283456 1.085728 0.440022l0.047072 0.013303 0.195451 0.088004c0.376577 0.170892 0.751107 0.340761 1.12052 0.520863l0.289596 0.118704 0.11768 0.088004c0.324388 0.162706 0.644683 0.332575 0.963954 0.50449l0.24457 0.13917c0.347924 0.198521 0.695848 0.402159 1.040702 0.61296 0.12075 0.072655 0.25992 0.163729 0.393973 0.25378 0.284479 0.181125 0.565888 0.358157 0.837064 0.544399 0.234337 0.160659 0.466628 0.330528 0.692778 0.496304l0.443092 0.317225c0.337691 0.252757 0.639566 0.49528 0.938372 0.737804l0.234337 0.186242c2.24718 1.863441 4.217045 4.03285 5.854335 6.446829l0.045025 0.058328 0.049119 0.077771c0.147356 0.216941 0.285502 0.436952 0.424672 0.660032l0.405229 0.648776 0.529049 0.925069c0.084934 0.151449 0.169869 0.300852 0.249687 0.453325 0.092098 0.177032 0.178055 0.344854 0.255827 0.512676 0.156566 0.299829 0.309038 0.599657 0.450255 0.908696l0.056282 0.124843 0.050142 0.094144 0.016373 0.040932c0.173962 0.384763 0.342808 0.775666 0.505513 1.171686l0.049119 0.118704 0.01842 0.058328c0.563842 1.412163 1.023306 2.87549 1.370207 4.352121 8.075933 34.262338 12.171204 69.63701 12.171204 105.136525 0 35.478026-4.090155 70.832232-12.156878 105.07922-0.348947 1.505283-0.814552 2.993171-1.384533 4.419659l-0.078795 0.252757-0.073678 0.121773c-0.140193 0.335644-0.287549 0.669242-0.435928 0.997724-0.001023 0.001023-0.025583 0.076748-0.025583 0.076748l-0.079818 0.170892c-0.150426 0.317225-0.308015 0.623193-0.469698 0.936325-0.079818 0.168846-0.163729 0.336668-0.252757 0.497327-0.084934 0.159636-0.198521 0.361227-0.311085 0.557702l-0.077771 0.135076c-0.102331 0.189312-0.223081 0.405229-0.348947 0.617054l-0.321318 0.51063c-0.156566 0.254803-0.328481 0.530073-0.505513 0.797156l-0.160659 0.228197c-0.178055 0.265036-0.356111 0.518816-0.538259 0.771573l-0.067538 0.149403-0.261966 0.292666c-0.901533 1.189082-1.821485 2.246157-2.7793 3.202948-0.331551 0.332575-0.684592 0.669242-1.039679 0.9967l-0.113587 0.100284 0.049119-0.049119-0.103354 0.097214c-0.298805 0.273223-0.601704 0.537236-0.916882 0.794086-0.132006 0.11461-0.273223 0.225127-0.414439 0.334621l-0.085958 0.064468c-0.166799 0.141216-0.415462 0.340761-0.668219 0.529049-0.251733 0.192382-0.524956 0.38374-0.800225 0.576121l-0.095167 0.067538c-0.104377 0.075725-0.208754 0.150426-0.313132 0.218988-0.277316 0.192382-0.606821 0.406253-0.941442 0.618077l-0.020466 0.01842-0.214894 0.130983c-2.035356 1.255597-4.224208 2.275833-6.507204 3.034103l-0.257873 0.092098c-0.234337 0.074701-0.470721 0.14224-0.707105 0.209778l-0.704035 0.206708c-0.272199 0.073678-0.485047 0.122797-0.695848 0.171915l-0.180102 0.041956c-0.199545 0.052189-0.462534 0.11768-0.718361 0.170892-0.196475 0.041956-0.399089 0.082888-0.601704 0.118704-0.261966 0.051165-0.970094 0.181125-0.970094 0.181125l-0.26913 0.034792-0.544399-2.886747 0.423649 2.904143c-0.391926 0.058328-0.779759 0.113587-1.175779 0.153496l-0.164752 0.017396c-0.445138 0.046049-0.918929 0.086981-1.39886 0.115634l-0.106424 0.005117c-0.490164 0.026606-0.972141 0.042979-1.461281 0.048095-0.00921 0-0.01842 0-0.026606 0-0.521886 0-1.016143-0.00614-1.5104-0.030699l-0.055259-0.002047c-1.350764-0.054235-2.820232-0.078795-4.493338-0.078795-58.545394 0-106.176205 47.400566-106.176205 105.665575 0 20.525476 5.925966 40.434921 17.139356 57.577347l0.119727 0.195451c0.048095 0.068562 0.135076 0.209778 0.222057 0.353041l0.080841 0.130983c0.48914 0.796132 0.884137 1.496074 1.225921 2.165316l0.239454 0.490164c0.385786 0.786922 0.731664 1.566682 1.030469 2.326998 0.036839 0.094144 0.077771 0.206708 0.116657 0.320295 0.321318 0.847298 0.607844 1.715061 0.853437 2.587941l0.038886 0.146333c0.257873 0.934279 0.469698 1.880837 0.630357 2.813069l0.044002 0.255827c0.308015 1.829671 0.447185 3.718695 0.408299 5.616928l-0.008186 0.23536c-0.025583 0.941442-0.086981 1.798972-0.185218 2.615571-0.00921 0.11154-0.021489 0.220011-0.036839 0.333598-0.128937 0.980327-0.265036 1.804089-0.427742 2.579755l-0.100284 0.425695c-0.149403 0.651846-0.360204 1.514493-0.645706 2.40477-0.014326 0.051165-0.140193 0.430812-0.140193 0.430812-0.285502 0.86367-0.567935 1.616824-0.886183 2.379187l-0.196475 0.446162c-0.376577 0.843204-0.74292 1.589195-1.133823 2.313695l-0.206708 0.360204c-0.432859 0.774643-0.916882 1.553379-1.426489 2.293229l-0.082888 0.118704c-0.656963 0.932232-1.232061 1.680269-1.817392 2.368954l-0.127913 0.144286c-0.555655 0.650823-1.169639 1.304715-1.798972 1.919722l-0.143263 0.209778-0.273223 0.196475c-52.560076 50.282197-117.039623 87.844697-186.476065 108.626-2.930749 0.896416-5.958712 1.352811-8.982582 1.352811 0 0-0.38988-0.002047-0.391926-0.002047-0.084934 0-0.804319-0.022513-0.804319-0.022513-0.224104-0.00614-0.447185-0.013303-0.668219-0.026606-0.429789-0.021489-0.884137-0.062422-1.339508-0.104377l-0.218988-0.021489-0.034792-0.008186c-1.234107-0.132006-2.543939-0.361227-3.839445-0.672312l-0.022513 0-0.427742-0.106424c-0.373507-0.095167-0.766456-0.208754-1.166569-0.327458l-0.293689-0.082888c-0.319272-0.102331-0.627287-0.206708-0.947582-0.319272-0.112564-0.034792-0.297782-0.096191-0.48914-0.168846-0.195451-0.068562-0.448208-0.167822-0.701988-0.270153-0.164752-0.060375-0.404206-0.150426-0.644683-0.24764-0.124843-0.051165-0.270153-0.115634-0.411369-0.181125-0.322341-0.141216-0.61296-0.26913-0.893346-0.403183-0.140193-0.058328-0.258896-0.11768-0.35918-0.173962-3.937682-1.909489-7.481392-4.680603-10.255575-8.016581-1.653663-1.979074-3.061732-4.191462-4.181229-6.569626-17.436114-36.873816-55.164391-60.702524-96.114035-60.702524-40.721447 0-78.259388 23.582091-95.820346 60.133565l0 0.279363-0.408299 0.575098c-0.962931 1.99954-2.163269 3.911076-3.571339 5.688559-2.868327 3.634784-6.600325 6.624884-10.790764 8.644891l-0.116657 0.060375c-0.361227 0.172939-0.645706 0.295735-0.929162 0.418532-0.236384 0.106424-0.396019 0.179079-0.561795 0.24764-0.159636 0.065492-0.340761 0.1361-0.522909 0.205685l-1.14815-2.702552 1.006933 2.756787c-0.24457 0.098237-0.491187 0.194428-0.73678 0.282433-0.035816 0.01535-0.51984 0.181125-0.656963 0.228197l-0.019443 0.021489-1.184989 0.357134C395.564639 952.924221 392.650263 953.337637 389.723607 953.337637zM513.851673 813.255205c55.290257 0 106.777909 26.898627 138.201595 72.077595 44.429909-16.286941 85.255733-40.148395 121.419374-70.963215-9.546424-21.396309-14.384615-44.184315-14.384615-67.768453 0-41.662889 15.477506-81.58411 43.582611-112.409163 27.405163-30.058596 64.561411-49.098231 104.83772-53.770648 3.904936-22.442128 5.884011-45.408189 5.884011-68.304665 0-22.877033-1.978051-45.843094-5.879917-68.301596-40.278355-4.673439-77.43972-23.706935-104.842837-53.756321-28.104081-30.816866-43.581588-70.728878-43.581588-112.385627 0-23.594371 4.838192-46.39261 14.384615-67.801199-36.154431-30.79333-76.982302-54.653761-121.42449-70.959122-31.419594 45.171806-82.893942 72.065316-138.16885 72.065316-55.29435 0-106.780978-26.895557-138.202619-72.070432-43.861974 16.08535-84.23652 39.555901-120.06554 69.796646 9.890254 21.73707 14.903431 44.928259 14.903431 68.967768 0 41.998533-15.700587 82.153068-44.209898 113.067148-27.820626 30.167067-65.438385 49.03274-106.146529 53.28253-3.88447 22.423709-5.853311 45.320185-5.853311 68.093864 0 22.790052 1.969864 45.686529 5.858428 68.102051 40.700981 4.250814 78.317717 23.122627 106.138342 53.295833 28.511357 30.924313 44.212968 71.086012 44.212968 113.086591 0 24.019043-5.013177 47.198975-14.903431 68.935022 35.837206 30.237675 76.209706 53.706179 120.0594 69.790506C407.0973 840.151785 458.575742 813.255205 513.851673 813.255205z" fill="#272636" p-id="4026"></path></svg>