<?xml version="1.0" standalone="no"?><!DOCTYPE svg PUBLIC "-//W3C//DTD SVG 1.1//EN" "http://www.w3.org/Graphics/SVG/1.1/DTD/svg11.dtd"><svg t="1693646351022" class="icon" viewBox="0 0 1024 1024" version="1.1" xmlns="http://www.w3.org/2000/svg" p-id="5877" xmlns:xlink="http://www.w3.org/1999/xlink" width="200" height="200"><path d="M428.083264 434.797687l-101.053534 169.789011-12.137435-76.812433c8.087189-4.040013 14.159488-14.149255 14.159488-24.257473 0-16.167215-12.137435-28.297486-28.297486-28.297487-16.180518 0-28.304649 12.130272-28.30465 28.297487 0 10.108219 6.066159 20.217461 14.145162 24.257473l-12.123109 74.794473-101.066836-167.770028c-56.595996 24.25338-97.016591 64.679092-105.10378 111.175056h-2.02103V792.563954h2.02103c10.108219 20.211321 111.168915 36.388768 234.467079 36.388768 123.292024 0 222.343971-16.177448 234.468103-36.388768h2.02103V545.972742h-2.02103c-12.123109-46.495964-52.55803-86.921675-109.153002-111.175055zM305.682539 390.643048c54.511521 0 98.697883-44.189432 98.697883-98.697883 0-54.505381-44.186362-98.69379-98.697883-98.693789-54.505381 0-98.69072 44.189432-98.690719 98.693789 0 54.508451 44.186362 98.697883 98.690719 98.697883z" fill="#DBDBDB" p-id="5878"></path><path d="M879.75527 201.147206H425.598676c16.180518 23.192212 26.405393 50.084699 28.794813 78.957283h346.404498c43.430138 0 78.957283 35.530215 78.957283 78.95626v236.866732c0 43.427068-35.527145 78.95626-78.957283 78.95626H595.513554v78.957283h284.241716c43.422975 0 78.95626-35.530215 78.95626-78.957283V280.103466c0-43.426045-35.533284-78.95626-78.95626-78.95626z" fill="#DBDBDB" p-id="5879"></path><path d="M836.481697 427.369507c0.128937 0.690732 3.069919 16.59598 3.069919 29.134551 0 12.800537-3.042289 28.970822-3.069919 29.134551-1.736551 9.166777-7.311523 15.115256-14.437827 15.115256h-1.245363c-19.897166 0-36.078707 16.340153-36.078707 36.44198 0 6.477528 3.110851 13.843286 3.151783 13.910825 3.567245 8.084119 0.816598 18.005073-6.840802 23.373337l-37.650505 20.945031c-2.348488 1.014096-4.900613 1.542122-7.589862 1.542122-5.792936 0-11.416004-2.423189-15.09172-6.520507-4.091178-4.516874-18.256806-17.444301-29.324885-17.444301-10.224876 0-24.029276 11.521404-29.134551 17.120936-3.628644 3.994987-9.265014 6.381337-14.996553 6.381338-2.749624 0-5.329379-0.523933-8.182356-1.801019l-36.269042-20.520359c-7.195889-5.071506-9.917884-15.027252-6.344498-23.113417 0.033769-0.064468 3.14462-7.362688 3.14462-13.873986 0-20.071128-16.180518-36.44198-36.078707-36.44198h-1.50426c-6.875594 0-12.443403-5.921873-14.179954-15.115256-0.12996-0.687662-3.069919-16.663518-3.069918-29.134551 0-12.508895 2.939959-28.478612 3.069918-29.134551 1.735527-9.193383 7.263427-15.126512 14.396895-15.126512h1.245364c19.911492 0 36.084846-16.32992 36.084846-36.431747 0-6.575766-3.110851-13.845333-3.151783-13.910824-3.560082-8.087189-0.810459-18.031679 6.875595-23.403013l38.338166-21.180392c2.348488-1.014096 4.900613-1.50733 7.583723-1.50733 5.737678 0 11.333116 2.328022 15.002692 6.255471 4.02978 4.257977 17.930371 16.433274 28.672016 16.433274 10.633175 0 24.478508-11.916401 28.474518-16.102746 3.669576-3.832282 9.231245-6.122441 14.894222-6.122441 2.749624 0 5.364171 0.523933 8.216126 1.766226l36.990472 20.820188c7.202029 5.074575 9.952676 14.993482 6.378268 23.107277-0.027629 0.064468-3.13848 7.368828-3.138481 13.883196 0 20.063965 16.208147 36.431747 36.077684 36.431747h1.49812c6.903224-0.038886 12.478196 5.89322 14.214746 15.087626z m-92.053555 33.126469c0-29.067013-23.436782-52.704362-52.204989-52.704363-28.773324 0-52.211129 23.638373-52.211129 52.704363 0 29.070082 23.410176 52.701293 52.211129 52.701292 28.808116 0 52.204989-23.63121 52.204989-52.701292z" fill="#DBDBDB" p-id="5880"></path></svg>